<svg version="1.0" xmlns="http://www.w3.org/2000/svg" width="150" height="150" viewBox="0 0 192 192" fill="#fff">
  <path d="M25.5 11.7c-16.7.3-18.1.5-20.2 2.5L3 16.3v80.3c0 87.2-.3 82.7 5.3 83.9 3.1.6 38.7 1.1 38.7.5 0-.3-1.8-2.3-4-4.4-3.8-3.7-10.7-13.4-14.3-20.1-16.2-30.1-19-75.6-6.6-105 7-16.7 13.8-28.1 20.3-34.4 3.6-3.5 4.7-6.3 2.4-5.9-.7.1-9.4.4-19.3.5m119.5.5c0 .4 1.5 2.2 3.3 4 9 9.2 14.9 19.3 21.9 37.3 7.8 20.2 8.6 55.2 1.8 81.5-.6 2.4-1.5 4.9-1.9 5.5-.4.5-1.6 3.2-2.6 6-1.9 5.2-8.2 17.6-9.4 18.5-.4.3-1.7 2.1-2.8 4-1.2 1.9-4 5.3-6.2 7.5-2.3 2.1-4.1 4.2-4.1 4.5 0 .6 35.5.2 38.7-.5 5.6-1.3 5.3 3.3 5.3-83.9V16.3l-2.2-2.1c-2.2-1.9-3.6-2.1-22.1-2.4-10.8-.2-19.7 0-19.7.4"/>
  <path d="M96.6 17.5C95.2 21 94.2 24.3 92 32c-1.2 4.1-4.3 13.7-6.7 21.2-4.5 13.6-4.6 13.8-7.9 14.4-1.8.3-13 .4-24.8.3-11.9-.2-21.5-.1-21.4.2.2.4 7.5 7.2 16.3 15.1 21.6 19.6 22.1 20.2 20.7 23-1.9 4-4.9 11.1-6.7 16.3-.9 2.7-2.1 5.9-2.5 7-1.1 2.6-5.2 13.3-8.4 21.7-1.9 5.2-2.2 6.8-1.1 6.8.7 0 1.5-.4 1.7-.8.3-.9 9.5-7.9 17.5-13.5 2.9-2 6.1-4.3 7-5.1 7.4-6 18.7-13.6 20.3-13.6s7.8 4.2 21.2 14.2c.9.7 2.7 2 3.9 2.8 5.4 3.7 17.6 12.8 19.2 14.4 2.6 2.6 3.2 1.2 1.3-2.8-.9-1.9-1.6-4.1-1.6-4.9 0-.9-.4-1.8-.9-2.2-.5-.3-1.2-1.9-1.6-3.6s-1.3-4.2-2.1-5.7-1.4-3.4-1.4-4.2c0-.9-.4-2-.8-2.5-.5-.6-1.9-4.2-3.2-8-1.2-3.9-3.3-9.2-4.6-11.9-1.3-2.8-2.4-5.6-2.4-6.3 0-1.4 10.7-12.2 25.5-25.7 5.5-5 10.1-9.6 10.3-10.3.3-1-4.5-1.3-23.1-1.3-17.6 0-23.7-.3-24.4-1.3-1-1.3-2.6-6.3-4.3-13.2-.5-2.2-2.3-9.2-4.1-15.5-1.7-6.3-3.7-13.8-4.3-16.5-1-4-1.5-4.6-2-3"/>
</svg>
