<svg version="1.0" xmlns="http://www.w3.org/2000/svg" width="333.333" height="82.667" viewBox="0 0 250 62">
  <g fill="#fff">
    <path d="M156.7 5.7c-1.4 1.7-1.3 1.8 2.3 1.8 3.7.1 3.9 0 2.3-1.7-2-2.2-2.6-2.2-4.6-.1m-144.2 9c1.3 12.6 1.6 24.6.6 25.6-.6.6-1.1 3.3-1.1 5.9V51h26V32.9l-3.2.3c-3 .3-3.3.6-3.6 4-.3 3.1-.7 3.8-2.4 3.8-2.1 0-2.1-.2-1.5-16L28 9H11.8zm32.1-.8c.1 2.7.4 5.3.7 5.7.7 1.3-3.2 20.8-4.3 21.2-.6.2-1 2.6-1 5.3V51h11v-5c0-2.9-.5-5-1.1-5s-.9-1-.7-2.3c.2-1.8 1-2.3 4.1-2.5 2-.2 3.7.1 3.7.7 0 .5.3 1.6.6 2.5.4 1.1.1 1.6-1 1.6-1.3 0-1.6 1.1-1.6 5v5h15v-9.2l4.3 4.8c3.9 4.3 4.7 4.7 9.7 5.1 4.6.4 6.1.1 9-1.9 10.4-6.9 11.4-28.8 1.6-37.7-2-1.9-4-2.6-8.4-2.8-7.3-.5-11 1.7-14.3 8.4-2 4-2.4 6.3-2.4 14 0 5.1-.2 9.3-.5 9.3-1.3 0-4.7-20.8-4.3-26.3l.5-5.7H44.5zm44.4 9c2.3 8.4.3 20.6-3.5 20.6-2.9 0-4.5-4.2-4.5-12.2 0-13.5 5.1-18.9 8-8.4m-34.7 1c.3 1.6.9 4 1.3 5.5.5 2.3.3 2.6-2 2.6-2.8 0-3-.8-2-7.3.8-4.4 1.9-4.8 2.7-.8M108 14c0 2.7.5 5 1 5 .6 0 1 4.3 1 11s-.4 11-1 11c-.5 0-1 2.2-1 5v5h11.3c9.2 0 11.7-.3 14.3-1.9 5-3 6.9-8.2 6.9-18.6 0-7.7-.4-9.6-2.4-13.2-3.7-6.4-8.4-8.3-20.4-8.3H108zm19.1 7.1c1.3 1.3 1.9 3 1.7 4.7-.3 2.4-.7 2.7-3.8 2.7-3.2 0-3.5-.2-3.8-3.3-.6-6.3 1.9-8.1 5.9-4.1m1.7 14.1c.2 1.7-.4 3.4-1.8 4.8-3 3-5.4 2.2-5.8-1.9-.5-5 .3-6.3 4-5.9 2.7.2 3.4.8 3.6 3m23.4-24.5c-5.1 2.5-8.4 9.1-9 17.7-.6 9.5 1.1 15.1 5.8 19.8 3.7 3.8 6.3 4.7 7.5 2.8.8-1.3 4.5-1.3 4.5 0 0 1.8 3.7 1 6.3-1.4 4.4-4.1 6-8.5 6.5-17.6.4-7.8.2-8.9-2.5-13.9-4.4-8.4-11.6-11.1-19.1-7.4m8.9 7.8 1.2 5.5h5.4c2.9 0 5.3.4 5.3.8s-1.7 2.5-3.9 4.6l-3.9 3.8 2.4 6.1c1.3 3.3 2.2 6.2 2 6.5-.3.2-2.7-1.5-5.5-3.8-5.6-4.7-4.7-4.8-12.5 1.4-2 1.6-3.8 2.7-4 2.5-.3-.2.7-3.1 2-6.3l2.4-6-4-4.1c-2.2-2.2-4-4.4-4-4.8s2.6-.7 5.8-.7h5.9l1.2-5.5c.7-3 1.6-5.5 2.1-5.5s1.4 2.5 2.1 5.5"/>
    <path d="M174 14c0 2.7.5 5 1 5 .6 0 1 4.5 1 11.5s-.4 11.5-1 11.5c-.5 0-1 2-1 4.5V51h12v-4.5c0-2.5-.4-4.5-1-4.5-.5 0-1-2.1-.9-4.8v-4.7l4.7 9.3 4.7 9.2h9.5V35c0-10 .4-16 1-16s1-2.3 1-5V9h-11v4.4c0 2.5.5 4.8 1 5.1.6.3 1 2.7 1 5.3 0 5.6-.5 5-5.6-6l-3.9-8.7-6.2-.1H174z"/>
    <path d="M227 10.6c0 1.2-.5 1.4-1.7.8-1-.5-3.9-.9-6.5-.9-3.6 0-5.3.6-7.4 2.5-9.5 8.8-8.9 30.8 1 37 4.1 2.5 12.4 2.7 16.7.4 3.9-1.9 6.8-8.4 6.9-14.7V31h-13v3.9c0 2.2.5 4.1 1.2 4.3 1.8.6.1 3.8-2.1 3.8-3.1 0-4.1-3.1-4.1-11.9 0-6.8.3-8.4 2-10.1 2.4-2.4 5.4-1.4 6.5 2.1.6 1.7 1.4 2 4.8 1.7l4.2-.3.2-7.8.2-7.7h-4.5c-3.4 0-4.4.4-4.4 1.6m-69.6 41.8c-.4 1-.2 2.2.4 2.8.8.8 1.3.7 1.8-.6.4-1 .2-2.2-.4-2.8-.8-.8-1.3-.7-1.8.6"/>
  </g>
</svg>
