<svg width="177" height="177" viewBox="0 0 177 177" fill="none" xmlns="http://www.w3.org/2000/svg">
<g clip-path="url(#clip0_1169_7975)">
<path d="M33.6782 71.651C52.3592 49.9741 96.9822 29.9268 137.097 34.12" stroke="url(#paint0_linear_1169_7975)" stroke-width="0.672627" stroke-miterlimit="10"/>
<path d="M14.2231 55.9035L17.0971 54.8882C17.1046 54.8832 17.1134 54.8805 17.1224 54.8805C17.1315 54.8805 17.1403 54.8832 17.1477 54.8882C17.1535 54.8954 17.1566 54.9043 17.1566 54.9136C17.1566 54.9228 17.1535 54.9318 17.1477 54.939L14.2231 55.9035Z" fill="#7BBDFF"/>
<path d="M23.0679 53.2085L29.1397 51.8226C29.1846 51.8134 29.2313 51.822 29.27 51.8466C29.3087 51.8712 29.3363 51.9099 29.3472 51.9545C29.3562 51.9989 29.3475 52.0451 29.3229 52.0831C29.2982 52.1211 29.2597 52.1479 29.2156 52.1576L23.1084 53.4166C23.0795 53.4226 23.0495 53.4169 23.0248 53.4007C23.0002 53.3845 22.9829 53.3592 22.9768 53.3303C22.9747 53.3163 22.9753 53.302 22.9788 53.2882C22.9822 53.2745 22.9884 53.2615 22.9968 53.2502C23.0053 53.2388 23.016 53.2293 23.0282 53.2221C23.0404 53.215 23.0539 53.2103 23.0679 53.2085Z" fill="#7BBDFF"/>
<path d="M35.2519 50.7006L41.4098 49.8427C41.4821 49.834 41.555 49.8541 41.6127 49.8987C41.6704 49.9433 41.7083 50.0089 41.7184 50.0813C41.7234 50.1169 41.7214 50.1532 41.7124 50.1881C41.7034 50.223 41.6876 50.2557 41.666 50.2845C41.6444 50.3133 41.6173 50.3375 41.5864 50.3557C41.5555 50.374 41.5212 50.386 41.4857 50.3909L35.3126 51.1778C35.2538 51.1815 35.1957 51.1627 35.1501 51.1251C35.1045 51.0875 35.0749 51.034 35.0672 50.9753C35.0595 50.9166 35.0743 50.8572 35.1085 50.809C35.1428 50.7608 35.1941 50.7275 35.2519 50.7158V50.7006Z" fill="#7BBDFF"/>
<path d="M47.5829 49.2184L53.7913 48.8123C53.8839 48.8062 53.9751 48.8373 54.0449 48.8987C54.1146 48.9601 54.1572 49.0468 54.1632 49.1397C54.1693 49.2326 54.1383 49.3241 54.0771 49.3941C54.0159 49.4641 53.9294 49.5068 53.8369 49.5128L47.6486 49.8428C47.6075 49.8463 47.5662 49.8413 47.527 49.8282C47.4879 49.8151 47.4519 49.7941 47.4211 49.7666C47.3903 49.739 47.3654 49.7054 47.348 49.6679C47.3306 49.6304 47.321 49.5897 47.3197 49.5484C47.3138 49.4702 47.3376 49.3926 47.3865 49.3314C47.4353 49.2701 47.5055 49.2297 47.5829 49.2184Z" fill="#7BBDFF"/>
<path d="M60.0098 48.6389L66.2284 48.6643C66.3411 48.6643 66.4492 48.7092 66.529 48.7892C66.6087 48.8692 66.6534 48.9776 66.6534 49.0907C66.6534 49.2038 66.6087 49.3123 66.529 49.3923C66.4492 49.4722 66.3411 49.5172 66.2284 49.5172L60.0351 49.4156C59.9844 49.4156 59.9343 49.4055 59.8875 49.3857C59.8408 49.3659 59.7985 49.337 59.7632 49.3005C59.7278 49.2641 59.7 49.2209 59.6816 49.1736C59.6631 49.1262 59.6543 49.0756 59.6557 49.0247C59.6565 48.9278 59.6932 48.8347 59.7587 48.7634C59.8241 48.6921 59.9136 48.6477 60.0098 48.6389Z" fill="#7BBDFF"/>
<path d="M72.447 48.9083L78.6504 49.416C78.7698 49.4247 78.8809 49.4807 78.9592 49.5716C79.0374 49.6626 79.0765 49.781 79.0678 49.9008C79.0591 50.0206 79.0033 50.1321 78.9126 50.2106C78.822 50.2892 78.704 50.3284 78.5846 50.3196L72.4116 49.812C72.2956 49.8016 72.1884 49.7456 72.1135 49.6562C72.0385 49.5667 72.002 49.4512 72.0118 49.3348C72.0145 49.2207 72.0615 49.1123 72.1428 49.0326C72.2241 48.9529 72.3333 48.9083 72.447 48.9083Z" fill="#7BBDFF"/>
<path d="M84.8388 50.0967L90.9967 51.0206C91.0585 51.0299 91.1178 51.0514 91.1714 51.0838C91.2249 51.1161 91.2716 51.1587 91.3087 51.2092C91.3458 51.2596 91.3726 51.3169 91.3877 51.3777C91.4028 51.4386 91.4057 51.5018 91.3964 51.5638C91.3871 51.6258 91.3657 51.6854 91.3335 51.7391C91.3012 51.7928 91.2588 51.8396 91.2085 51.8768C91.1582 51.9141 91.1011 51.941 91.0405 51.9561C90.9798 51.9712 90.9168 51.9742 90.855 51.9649L84.7376 51.0206C84.6778 51.0116 84.6204 50.9909 84.5686 50.9596C84.5167 50.9283 84.4716 50.8871 84.4356 50.8383C84.3997 50.7895 84.3737 50.7341 84.3591 50.6752C84.3445 50.6164 84.3416 50.5552 84.3506 50.4952C84.3595 50.4352 84.3802 50.3775 84.4114 50.3256C84.4425 50.2736 84.4836 50.2283 84.5322 50.1922C84.5809 50.1561 84.6361 50.13 84.6948 50.1154C84.7535 50.1007 84.8144 50.0978 84.8743 50.1068L84.8388 50.0967Z" fill="#7BBDFF"/>
<path d="M97.1089 52.1929L103.181 53.5788C103.294 53.6227 103.388 53.7061 103.446 53.8139C103.503 53.9216 103.519 54.0464 103.492 54.1655C103.465 54.2845 103.396 54.3897 103.298 54.462C103.2 54.5342 103.079 54.5685 102.958 54.5586L96.9267 53.1575C96.8029 53.1239 96.6964 53.0444 96.6288 52.9351C96.5612 52.8258 96.5375 52.6948 96.5624 52.5686C96.5933 52.4505 96.6655 52.3476 96.7659 52.2786C96.8662 52.2096 96.988 52.1792 97.1089 52.1929Z" fill="#7BBDFF"/>
<path d="M109.192 55.1979L115.127 57.0813C115.205 57.0844 115.281 57.1053 115.349 57.1426C115.417 57.1799 115.476 57.2325 115.521 57.2964C115.566 57.3602 115.595 57.4336 115.607 57.5107C115.619 57.5879 115.613 57.6668 115.59 57.7412C115.567 57.8157 115.526 57.8838 115.472 57.9401C115.419 57.9964 115.352 58.0396 115.279 58.0661C115.206 58.0926 115.128 58.1018 115.05 58.0931C114.973 58.0843 114.899 58.0577 114.833 58.0154L108.923 56.1676C108.852 56.1559 108.784 56.129 108.723 56.0886C108.663 56.0482 108.612 55.9953 108.574 55.9334C108.536 55.8715 108.512 55.8022 108.503 55.73C108.493 55.6579 108.5 55.5846 108.522 55.5152C108.543 55.4458 108.579 55.3818 108.628 55.3277C108.676 55.2735 108.736 55.2304 108.802 55.2013C108.868 55.1722 108.94 55.1577 109.013 55.1589C109.085 55.1601 109.157 55.1768 109.222 55.2081L109.192 55.1979Z" fill="#7BBDFF"/>
<path d="M120.986 59.2088L126.749 61.5694C126.863 61.6166 126.954 61.7073 127.002 61.8215C127.049 61.9357 127.049 62.0641 127.002 62.1786C126.98 62.235 126.946 62.2864 126.903 62.3297C126.861 62.3731 126.81 62.4075 126.754 62.4311C126.698 62.4547 126.638 62.467 126.577 62.4672C126.517 62.4674 126.456 62.4556 126.4 62.4324L120.662 60.1023C120.55 60.049 120.46 59.9558 120.412 59.8406C120.363 59.7253 120.359 59.5962 120.399 59.4778C120.447 59.3609 120.538 59.2675 120.654 59.218C120.769 59.1686 120.9 59.1671 121.017 59.2139L120.986 59.2088Z" fill="#7BBDFF"/>
<path d="M132.401 64.1788L137.967 67.0267C138.025 67.0492 138.077 67.0834 138.12 67.1273C138.164 67.1712 138.197 67.2238 138.219 67.2816C138.241 67.3394 138.251 67.4011 138.247 67.4628C138.244 67.5246 138.227 67.5849 138.199 67.6399C138.171 67.6949 138.132 67.7434 138.084 67.7822C138.036 67.821 137.98 67.8492 137.921 67.8651C137.861 67.881 137.799 67.8842 137.738 67.8744C137.677 67.8647 137.619 67.8422 137.568 67.8085L132.047 65.0063C131.942 64.9517 131.862 64.8576 131.825 64.7444C131.789 64.6311 131.798 64.5079 131.851 64.4016C131.905 64.2952 131.998 64.2143 132.11 64.1764C132.223 64.1384 132.346 64.1466 132.452 64.1991L132.401 64.1788Z" fill="#7BBDFF"/>
<path d="M143.366 70.1081L148.623 73.4484C148.699 73.5078 148.751 73.5933 148.768 73.6884C148.784 73.7836 148.766 73.8817 148.715 73.9637C148.664 74.0457 148.584 74.1059 148.492 74.1326C148.399 74.1593 148.3 74.1507 148.213 74.1084L142.946 70.8543C142.897 70.826 142.853 70.7879 142.819 70.7424C142.784 70.697 142.759 70.645 142.745 70.5896C142.731 70.5342 142.728 70.4765 142.737 70.4199C142.745 70.3634 142.765 70.3091 142.795 70.2604C142.825 70.2117 142.864 70.1696 142.91 70.1364C142.957 70.1033 143.009 70.0798 143.065 70.0675C143.121 70.0552 143.178 70.0542 143.234 70.0647C143.29 70.0751 143.344 70.0968 143.391 70.1284L143.366 70.1081Z" fill="#7BBDFF"/>
<path d="M153.734 77.0122L158.682 80.7993C158.738 80.8535 158.772 80.9262 158.778 81.0038C158.784 81.0815 158.762 81.1586 158.715 81.2209C158.669 81.2832 158.601 81.3263 158.525 81.3422C158.449 81.358 158.37 81.3455 158.303 81.307L153.324 77.5757C153.285 77.5477 153.253 77.5121 153.228 77.471C153.203 77.43 153.187 77.3844 153.181 77.337C153.174 77.2896 153.177 77.2414 153.189 77.1951C153.202 77.1489 153.224 77.1057 153.253 77.0681C153.281 77.0287 153.316 76.9954 153.357 76.9703C153.398 76.9452 153.443 76.9288 153.491 76.9221C153.538 76.9154 153.586 76.9186 153.633 76.9315C153.679 76.9444 153.722 76.9667 153.759 76.997L153.734 77.0122Z" fill="#7BBDFF"/>
<path d="M163.459 84.7994L168.053 89.0079C168.076 89.0286 168.094 89.0535 168.107 89.0813C168.12 89.109 168.127 89.1391 168.129 89.1697C168.13 89.2004 168.126 89.231 168.115 89.2598C168.105 89.2887 168.089 89.3152 168.068 89.3379C168.048 89.3605 168.023 89.3789 167.995 89.3919C167.968 89.405 167.938 89.4124 167.907 89.4138C167.877 89.4152 167.846 89.4106 167.817 89.4002C167.788 89.3898 167.762 89.3738 167.739 89.3531L163.1 85.2259C163.055 85.1749 163.03 85.1094 163.03 85.0414C163.03 84.9734 163.054 84.9078 163.099 84.8567C163.144 84.8056 163.205 84.7727 163.273 84.764C163.34 84.7553 163.408 84.7715 163.464 84.8096L163.459 84.7994Z" fill="#7BBDFF"/>
<path d="M172.45 93.4148L176.655 97.9837C176.666 97.9941 176.675 98.0067 176.682 98.0208C176.688 98.0349 176.691 98.0501 176.691 98.0655C176.691 98.0809 176.688 98.0962 176.682 98.1103C176.676 98.1245 176.667 98.1372 176.656 98.1478C176.645 98.1583 176.632 98.1664 176.617 98.1715C176.603 98.1767 176.587 98.1788 176.572 98.1777C176.557 98.1766 176.542 98.1723 176.528 98.1651C176.515 98.158 176.503 98.1481 176.493 98.136L172.202 93.6433C172.17 93.6109 172.152 93.5671 172.152 93.5214C172.152 93.4758 172.17 93.4319 172.202 93.3996C172.235 93.3673 172.278 93.3492 172.324 93.3492C172.369 93.3492 172.413 93.3673 172.445 93.3996L172.45 93.4148Z" fill="#7BBDFF"/>
<path d="M86.2906 170.902C129.709 170.902 164.906 154.804 164.906 134.945C164.906 115.086 129.709 98.9878 86.2906 98.9878C42.8727 98.9878 7.67554 115.086 7.67554 134.945C7.67554 154.804 42.8727 170.902 86.2906 170.902Z" fill="url(#paint1_linear_1169_7975)" fill-opacity="0.1"/>
<path d="M86.3463 162.623C117.306 162.623 142.405 151.784 142.405 138.413C142.405 125.042 117.306 114.203 86.3463 114.203C55.3862 114.203 30.2881 125.042 30.2881 138.413C30.2881 151.784 55.3862 162.623 86.3463 162.623Z" fill="url(#paint2_linear_1169_7975)" fill-opacity="0.17"/>
<path d="M86.1946 155.867C104.884 155.867 120.035 150.582 120.035 144.064C120.035 137.545 104.884 132.261 86.1946 132.261C67.5051 132.261 52.3542 137.545 52.3542 144.064C52.3542 150.582 67.5051 155.867 86.1946 155.867Z" fill="url(#paint3_linear_1169_7975)" fill-opacity="0.48"/>
<path d="M86.1541 155.866C100.481 155.866 112.096 153.169 112.096 149.841C112.096 146.513 100.481 143.815 86.1541 143.815C71.8268 143.815 60.2122 146.513 60.2122 149.841C60.2122 153.169 71.8268 155.866 86.1541 155.866Z" fill="url(#paint4_linear_1169_7975)"/>
<path d="M71.7943 65.1631C72.451 65.1631 72.9834 64.629 72.9834 63.9701C72.9834 63.3112 72.451 62.7771 71.7943 62.7771C71.1376 62.7771 70.6052 63.3112 70.6052 63.9701C70.6052 64.629 71.1376 65.1631 71.7943 65.1631Z" fill="url(#paint5_linear_1169_7975)"/>
<path d="M71.7943 68.4067C72.3699 68.4067 72.8366 67.9385 72.8366 67.361C72.8366 66.7834 72.3699 66.3152 71.7943 66.3152C71.2186 66.3152 70.752 66.7834 70.752 67.361C70.752 67.9385 71.2186 68.4067 71.7943 68.4067Z" fill="url(#paint6_linear_1169_7975)"/>
<path d="M71.7943 71.6511C72.3699 71.6511 72.8366 71.1829 72.8366 70.6053C72.8366 70.0278 72.3699 69.5596 71.7943 69.5596C71.2186 69.5596 70.752 70.0278 70.752 70.6053C70.752 71.1829 71.2186 71.6511 71.7943 71.6511Z" fill="url(#paint7_linear_1169_7975)"/>
<path d="M71.7943 74.8288C72.3169 74.8288 72.7405 74.4038 72.7405 73.8795C72.7405 73.3552 72.3169 72.9302 71.7943 72.9302C71.2718 72.9302 70.8481 73.3552 70.8481 73.8795C70.8481 74.4038 71.2718 74.8288 71.7943 74.8288Z" fill="url(#paint8_linear_1169_7975)"/>
<path d="M71.7942 78.0675C72.2805 78.0675 72.6747 77.6721 72.6747 77.1842C72.6747 76.6964 72.2805 76.3009 71.7942 76.3009C71.308 76.3009 70.9138 76.6964 70.9138 77.1842C70.9138 77.6721 71.308 78.0675 71.7942 78.0675Z" fill="url(#paint9_linear_1169_7975)"/>
<path d="M71.7942 81.0833C72.2497 81.0833 72.619 80.7128 72.619 80.2558C72.619 79.7988 72.2497 79.4283 71.7942 79.4283C71.3387 79.4283 70.9695 79.7988 70.9695 80.2558C70.9695 80.7128 71.3387 81.0833 71.7942 81.0833Z" fill="url(#paint10_linear_1169_7975)"/>
<path d="M71.7941 84.3573C72.2133 84.3573 72.5531 84.0164 72.5531 83.5958C72.5531 83.1753 72.2133 82.8344 71.7941 82.8344C71.375 82.8344 71.0352 83.1753 71.0352 83.5958C71.0352 84.0164 71.375 84.3573 71.7941 84.3573Z" fill="url(#paint11_linear_1169_7975)"/>
<path d="M71.7944 87.556C72.1717 87.556 72.4775 87.2491 72.4775 86.8706C72.4775 86.4921 72.1717 86.1853 71.7944 86.1853C71.4172 86.1853 71.1113 86.4921 71.1113 86.8706C71.1113 87.2491 71.4172 87.556 71.7944 87.556Z" fill="url(#paint12_linear_1169_7975)"/>
<path d="M71.7942 90.7795C72.1295 90.7795 72.4014 90.5068 72.4014 90.1703C72.4014 89.8339 72.1295 89.5612 71.7942 89.5612C71.4589 89.5612 71.187 89.8339 71.187 90.1703C71.187 90.5068 71.4589 90.7795 71.7942 90.7795Z" fill="url(#paint13_linear_1169_7975)"/>
<path d="M27.0751 124.229C27.7318 124.229 28.2641 123.695 28.2641 123.036C28.2641 122.377 27.7318 121.843 27.0751 121.843C26.4183 121.843 25.886 122.377 25.886 123.036C25.886 123.695 26.4183 124.229 27.0751 124.229Z" fill="url(#paint14_linear_1169_7975)"/>
<path d="M27.075 127.468C27.6507 127.468 28.1174 127 28.1174 126.422C28.1174 125.845 27.6507 125.377 27.075 125.377C26.4994 125.377 26.0327 125.845 26.0327 126.422C26.0327 127 26.4994 127.468 27.075 127.468Z" fill="url(#paint15_linear_1169_7975)"/>
<path d="M27.075 130.712C27.6507 130.712 28.1174 130.244 28.1174 129.666C28.1174 129.089 27.6507 128.62 27.075 128.62C26.4994 128.62 26.0327 129.089 26.0327 129.666C26.0327 130.244 26.4994 130.712 27.075 130.712Z" fill="url(#paint16_linear_1169_7975)"/>
<path d="M27.0751 133.89C27.5977 133.89 28.0213 133.465 28.0213 132.94C28.0213 132.416 27.5977 131.991 27.0751 131.991C26.5525 131.991 26.1289 132.416 26.1289 132.94C26.1289 133.465 26.5525 133.89 27.0751 133.89Z" fill="url(#paint17_linear_1169_7975)"/>
<path d="M27.075 137.128C27.5612 137.128 27.9554 136.733 27.9554 136.245C27.9554 135.757 27.5612 135.362 27.075 135.362C26.5888 135.362 26.1946 135.757 26.1946 136.245C26.1946 136.733 26.5888 137.128 27.075 137.128Z" fill="url(#paint18_linear_1169_7975)"/>
<path d="M27.075 140.149C27.5305 140.149 27.8998 139.779 27.8998 139.322C27.8998 138.865 27.5305 138.494 27.075 138.494C26.6195 138.494 26.2502 138.865 26.2502 139.322C26.2502 139.779 26.6195 140.149 27.075 140.149Z" fill="url(#paint19_linear_1169_7975)"/>
<path d="M27.0751 143.423C27.4943 143.423 27.8341 143.082 27.8341 142.662C27.8341 142.241 27.4943 141.9 27.0751 141.9C26.656 141.9 26.3162 142.241 26.3162 142.662C26.3162 143.082 26.656 143.423 27.0751 143.423Z" fill="url(#paint20_linear_1169_7975)"/>
<path d="M27.0752 146.622C27.4524 146.622 27.7583 146.315 27.7583 145.937C27.7583 145.558 27.4524 145.251 27.0752 145.251C26.6979 145.251 26.3921 145.558 26.3921 145.937C26.3921 146.315 26.6979 146.622 27.0752 146.622Z" fill="url(#paint21_linear_1169_7975)"/>
<path d="M27.075 149.84C27.4103 149.84 27.6821 149.567 27.6821 149.231C27.6821 148.894 27.4103 148.622 27.075 148.622C26.7396 148.622 26.4678 148.894 26.4678 149.231C26.4678 149.567 26.7396 149.84 27.075 149.84Z" fill="url(#paint22_linear_1169_7975)"/>
<path d="M142.4 93.1658C143.056 93.1658 143.589 92.6317 143.589 91.9728C143.589 91.3139 143.056 90.7798 142.4 90.7798C141.743 90.7798 141.21 91.3139 141.21 91.9728C141.21 92.6317 141.743 93.1658 142.4 93.1658Z" fill="url(#paint23_linear_1169_7975)"/>
<path d="M142.4 96.4099C142.975 96.4099 143.442 95.9417 143.442 95.3641C143.442 94.7866 142.975 94.3184 142.4 94.3184C141.824 94.3184 141.357 94.7866 141.357 95.3641C141.357 95.9417 141.824 96.4099 142.4 96.4099Z" fill="url(#paint24_linear_1169_7975)"/>
<path d="M142.4 99.6485C142.975 99.6485 143.442 99.1803 143.442 98.6028C143.442 98.0252 142.975 97.557 142.4 97.557C141.824 97.557 141.357 98.0252 141.357 98.6028C141.357 99.1803 141.824 99.6485 142.4 99.6485Z" fill="url(#paint25_linear_1169_7975)"/>
<path d="M142.4 102.826C142.922 102.826 143.346 102.401 143.346 101.877C143.346 101.353 142.922 100.928 142.4 100.928C141.877 100.928 141.453 101.353 141.453 101.877C141.453 102.401 141.877 102.826 142.4 102.826Z" fill="url(#paint26_linear_1169_7975)"/>
<path d="M142.399 106.066C142.886 106.066 143.28 105.67 143.28 105.182C143.28 104.695 142.886 104.299 142.399 104.299C141.913 104.299 141.519 104.695 141.519 105.182C141.519 105.67 141.913 106.066 142.399 106.066Z" fill="url(#paint27_linear_1169_7975)"/>
<path d="M142.4 109.086C142.855 109.086 143.224 108.716 143.224 108.259C143.224 107.802 142.855 107.431 142.4 107.431C141.944 107.431 141.575 107.802 141.575 108.259C141.575 108.716 141.944 109.086 142.4 109.086Z" fill="url(#paint28_linear_1169_7975)"/>
<path d="M142.399 112.36C142.819 112.36 143.158 112.02 143.158 111.599C143.158 111.178 142.819 110.838 142.399 110.838C141.98 110.838 141.64 111.178 141.64 111.599C141.64 112.02 141.98 112.36 142.399 112.36Z" fill="url(#paint29_linear_1169_7975)"/>
<path d="M142.399 115.559C142.777 115.559 143.082 115.252 143.082 114.873C143.082 114.495 142.777 114.188 142.399 114.188C142.022 114.188 141.716 114.495 141.716 114.873C141.716 115.252 142.022 115.559 142.399 115.559Z" fill="url(#paint30_linear_1169_7975)"/>
<path d="M142.4 118.777C142.735 118.777 143.007 118.504 143.007 118.168C143.007 117.831 142.735 117.558 142.4 117.558C142.064 117.558 141.792 117.831 141.792 118.168C141.792 118.504 142.064 118.777 142.4 118.777Z" fill="url(#paint31_linear_1169_7975)"/>
<path d="M142.4 121.747C142.699 121.747 142.941 121.504 142.941 121.204C142.941 120.904 142.699 120.661 142.4 120.661C142.101 120.661 141.858 120.904 141.858 121.204C141.858 121.504 142.101 121.747 142.4 121.747Z" fill="url(#paint32_linear_1169_7975)"/>
<path d="M142.399 124.676C142.637 124.676 142.829 124.483 142.829 124.244C142.829 124.006 142.637 123.813 142.399 123.813C142.162 123.813 141.969 124.006 141.969 124.244C141.969 124.483 142.162 124.676 142.399 124.676Z" fill="url(#paint33_linear_1169_7975)"/>
<path d="M142.4 127.773C142.604 127.773 142.769 127.607 142.769 127.402C142.769 127.198 142.604 127.032 142.4 127.032C142.196 127.032 142.03 127.198 142.03 127.402C142.03 127.607 142.196 127.773 142.4 127.773Z" fill="url(#paint34_linear_1169_7975)"/>
<path d="M89.2458 54.7868V24.8605C89.2461 24.3736 89.1199 23.895 88.8794 23.4721C88.6389 23.0492 88.2925 22.6966 87.8745 22.4492L66.0766 9.50901C65.9388 9.42735 65.7818 9.38381 65.6217 9.38283C65.4616 9.38185 65.3041 9.42347 65.1653 9.50344C65.0264 9.58341 64.9112 9.69888 64.8313 9.83808C64.7514 9.97729 64.7097 10.1352 64.7105 10.2959V40.5166C64.7083 41.0533 64.8476 41.5811 65.1142 42.0465C65.3807 42.5118 65.7651 42.8982 66.2284 43.1666L87.5709 55.7463C87.7397 55.8453 87.9315 55.8979 88.127 55.8989C88.3225 55.8999 88.5148 55.8492 88.6846 55.7519C88.8543 55.6547 88.9956 55.5143 89.0941 55.3448C89.1926 55.1754 89.2449 54.983 89.2458 54.7868Z" fill="url(#paint35_linear_1169_7975)" fill-opacity="0.3"/>
<path d="M83.4572 57.8631V27.9368C83.4576 27.4498 83.3313 26.9713 83.0908 26.5483C82.8503 26.1254 82.5039 25.7728 82.086 25.5254L60.2931 12.5954C60.1555 12.5127 59.9985 12.4681 59.838 12.4662C59.6776 12.4644 59.5196 12.5053 59.3801 12.5848C59.2407 12.6644 59.1247 12.7796 59.0442 12.9188C58.9637 13.0581 58.9215 13.2162 58.9219 13.3772V43.5929C58.9198 44.1296 59.059 44.6573 59.3256 45.1227C59.5922 45.588 59.9766 45.9745 60.4399 46.2428L81.8026 58.8225C81.9706 58.9181 82.1606 58.9679 82.3537 58.9671C82.5468 58.9663 82.7364 58.9149 82.9036 58.8179C83.0708 58.721 83.2099 58.5818 83.307 58.4144C83.4041 58.2469 83.4558 58.0568 83.4572 57.8631Z" fill="url(#paint36_linear_1169_7975)" fill-opacity="0.6"/>
<path d="M78.9236 61.66V31.7337C78.9197 31.2511 78.7913 30.7778 78.551 30.3597C78.3107 29.9416 77.9667 29.593 77.5524 29.3478L55.7545 16.3822C55.6166 16.3012 55.4599 16.2579 55.3001 16.2569C55.1403 16.2558 54.983 16.2969 54.8441 16.3762C54.7051 16.4554 54.5894 16.5699 54.5085 16.7082C54.4276 16.8465 54.3845 17.0037 54.3833 17.164V47.3898C54.3842 47.926 54.5248 48.4525 54.7911 48.9173C55.0573 49.3822 55.44 49.7691 55.9013 50.0398L77.2488 62.6195C77.4176 62.7185 77.6094 62.7711 77.8049 62.7721C78.0004 62.7731 78.1927 62.7224 78.3625 62.6251C78.5322 62.5279 78.6735 62.3875 78.772 62.2181C78.8705 62.0486 78.9228 61.8562 78.9236 61.66Z" fill="url(#paint37_linear_1169_7975)"/>
<path d="M9.14307 112.918V82.9666C9.14368 82.4799 9.27039 82.0017 9.51079 81.579C9.75118 81.1562 10.097 80.8034 10.5143 80.5552L32.3071 67.6202C32.4473 67.5357 32.6077 67.4909 32.7713 67.4905C32.9348 67.4901 33.0954 67.5341 33.236 67.6179C33.3767 67.7018 33.492 67.8222 33.5699 67.9665C33.6478 68.1108 33.6852 68.2736 33.6784 68.4375V98.6582C33.6788 99.1953 33.5389 99.7231 33.2725 100.189C33.0062 100.655 32.6227 101.043 32.1604 101.313L10.8179 113.883C10.6487 113.982 10.4565 114.035 10.2606 114.035C10.0646 114.036 9.87198 113.985 9.70207 113.887C9.53215 113.789 9.39098 113.648 9.29283 113.478C9.19468 113.308 9.14302 113.115 9.14307 112.918Z" fill="url(#paint38_linear_1169_7975)" fill-opacity="0.3"/>
<path d="M13.3782 116.766V86.8449C13.3778 86.358 13.5041 85.8795 13.7446 85.4565C13.9851 85.0336 14.3314 84.681 14.7494 84.4336L36.5422 71.4833C36.6805 71.402 36.8377 71.3588 36.9979 71.3579C37.1581 71.3571 37.3158 71.3987 37.4549 71.4785C37.594 71.5583 37.7096 71.6735 37.7901 71.8125C37.8706 71.9515 37.9132 72.1094 37.9135 72.2702V102.501C37.9156 103.038 37.7763 103.566 37.5097 104.031C37.2432 104.496 36.8588 104.883 36.3955 105.151L15.053 117.731C14.8838 117.83 14.6916 117.883 14.4957 117.883C14.2997 117.884 14.1071 117.833 13.9372 117.735C13.7673 117.637 13.6261 117.496 13.5279 117.326C13.4298 117.156 13.3781 116.963 13.3782 116.766Z" fill="url(#paint39_linear_1169_7975)" fill-opacity="0.6"/>
<path d="M18.8428 119.888V89.962C18.8434 89.4753 18.9701 88.9971 19.2105 88.5743C19.4509 88.1516 19.7967 87.7988 20.214 87.5506L42.0119 74.6155C42.1495 74.5328 42.3065 74.4882 42.467 74.4864C42.6274 74.4845 42.7854 74.5255 42.9249 74.605C43.0644 74.6845 43.1803 74.7998 43.2608 74.939C43.3413 75.0782 43.3835 75.2364 43.3831 75.3973V105.618C43.3825 106.155 43.2422 106.682 42.9759 107.148C42.7097 107.614 42.3268 108.002 41.8652 108.273L20.5125 120.853C20.3435 120.951 20.1518 121.002 19.9566 121.002C19.7614 121.003 19.5697 120.951 19.4005 120.853C19.2314 120.756 19.0908 120.615 18.9929 120.446C18.895 120.276 18.8432 120.084 18.8428 119.888Z" fill="url(#paint40_linear_1169_7975)"/>
<path d="M147.91 68.8942L126.41 81.5856C126.245 81.6773 126.058 81.7238 125.869 81.7203C125.68 81.7169 125.496 81.6636 125.334 81.5659C125.172 81.4682 125.038 81.3294 124.947 81.1636C124.855 80.9978 124.808 80.8107 124.811 80.621V59.0304C124.81 58.392 124.976 57.7645 125.292 57.2104C125.608 56.6563 126.063 56.1951 126.613 55.8728L148.315 43.0799C148.475 42.9864 148.657 42.9368 148.843 42.9363C149.028 42.9357 149.211 42.9842 149.372 43.0768C149.533 43.1694 149.667 43.3029 149.76 43.4638C149.853 43.6248 149.903 43.8075 149.903 43.9937V65.4421C149.902 66.1424 149.717 66.8298 149.367 67.4357C149.017 68.0416 148.514 68.5445 147.91 68.8942Z" fill="url(#paint41_linear_1169_7975)" fill-opacity="0.3"/>
<path d="M152.408 72.8133L130.909 85.5047C130.745 85.6014 130.558 85.653 130.368 85.654C130.178 85.6551 129.991 85.6057 129.826 85.5109C129.661 85.416 129.524 85.2791 129.429 85.1139C129.334 84.9488 129.284 84.7614 129.284 84.5707V62.9445C129.289 62.3101 129.458 61.6877 129.773 61.1379C130.089 60.5881 130.541 60.1297 131.086 59.8072L152.793 47.0194C152.953 46.9242 153.135 46.8733 153.321 46.872C153.508 46.8706 153.691 46.9189 153.852 47.0118C154.014 47.1047 154.148 47.2389 154.241 47.4008C154.334 47.5626 154.382 47.7463 154.381 47.9331V69.3816C154.377 70.0762 154.193 70.7578 153.847 71.3594C153.501 71.9611 153.005 72.4621 152.408 72.8133Z" fill="url(#paint42_linear_1169_7975)" fill-opacity="0.6"/>
<path d="M157.255 75.9357L135.756 88.6017C135.593 88.6982 135.407 88.7497 135.217 88.751C135.027 88.7523 134.841 88.7033 134.676 88.6091C134.511 88.5148 134.374 88.3786 134.278 88.2142C134.183 88.0498 134.132 87.863 134.132 87.6727V66.0669C134.132 65.4287 134.298 64.8015 134.614 64.2476C134.93 63.6937 135.385 63.2323 135.933 62.9093L157.635 50.1214C157.795 50.0262 157.978 49.9754 158.164 49.974C158.35 49.9727 158.533 50.0209 158.695 50.1138C158.856 50.2067 158.99 50.341 159.083 50.5028C159.176 50.6647 159.225 50.8484 159.224 51.0352V72.4989C159.22 73.1937 159.037 73.8758 158.692 74.4783C158.347 75.0808 157.852 75.583 157.255 75.9357Z" fill="url(#paint43_linear_1169_7975)"/>
<path opacity="0.31" d="M71.521 102.786C73.5135 102.786 75.1287 101.165 75.1287 99.1663C75.1287 97.1673 73.5135 95.5468 71.521 95.5468C69.5285 95.5468 67.9133 97.1673 67.9133 99.1663C67.9133 101.165 69.5285 102.786 71.521 102.786Z" fill="url(#paint44_linear_1169_7975)"/>
<path d="M71.5211 101.08C72.5746 101.08 73.4287 100.224 73.4287 99.1666C73.4287 98.1096 72.5746 97.2527 71.5211 97.2527C70.4676 97.2527 69.6135 98.1096 69.6135 99.1666C69.6135 100.224 70.4676 101.08 71.5211 101.08Z" fill="url(#paint45_linear_1169_7975)"/>
<path d="M142.4 138.636C143.453 138.636 144.307 137.779 144.307 136.722C144.307 135.665 143.453 134.808 142.4 134.808C141.346 134.808 140.492 135.665 140.492 136.722C140.492 137.779 141.346 138.636 142.4 138.636Z" fill="url(#paint46_linear_1169_7975)"/>
<path opacity="0.31" d="M142.4 140.341C144.392 140.341 146.007 138.721 146.007 136.722C146.007 134.723 144.392 133.102 142.4 133.102C140.407 133.102 138.792 134.723 138.792 136.722C138.792 138.721 140.407 140.341 142.4 140.341Z" fill="url(#paint47_linear_1169_7975)"/>
<path d="M26.4732 159.669C27.5268 159.669 28.3808 158.812 28.3808 157.755C28.3808 156.698 27.5268 155.841 26.4732 155.841C25.4197 155.841 24.5657 156.698 24.5657 157.755C24.5657 158.812 25.4197 159.669 26.4732 159.669Z" fill="url(#paint48_linear_1169_7975)"/>
<path opacity="0.31" d="M26.4732 161.374C28.4656 161.374 30.0808 159.754 30.0808 157.755C30.0808 155.756 28.4656 154.135 26.4732 154.135C24.4807 154.135 22.8655 155.756 22.8655 157.755C22.8655 159.754 24.4807 161.374 26.4732 161.374Z" fill="url(#paint49_linear_1169_7975)"/>
<path opacity="0.25" d="M60.2173 61.0203V149.86C61.1432 156.581 107.461 158.439 112.096 149.86V61.0203H60.2173Z" fill="url(#paint50_linear_1169_7975)"/>
<path d="M17.77 9.38719C18.6335 9.38719 19.3335 8.68488 19.3335 7.81853C19.3335 6.95219 18.6335 6.24988 17.77 6.24988C16.9065 6.24988 16.2065 6.95219 16.2065 7.81853C16.2065 8.68488 16.9065 9.38719 17.77 9.38719Z" fill="#A9C9EF"/>
<path d="M22.9717 44.5124C24.8608 44.5124 26.3922 42.976 26.3922 41.0807C26.3922 39.1854 24.8608 37.6489 22.9717 37.6489C21.0827 37.6489 19.5513 39.1854 19.5513 41.0807C19.5513 42.976 21.0827 44.5124 22.9717 44.5124Z" fill="#58B0F6"/>
<path d="M159.223 95.405C161.113 95.405 162.644 93.8686 162.644 91.9733C162.644 90.078 161.113 88.5415 159.223 88.5415C157.334 88.5415 155.803 90.078 155.803 91.9733C155.803 93.8686 157.334 95.405 159.223 95.405Z" fill="#58B0F6"/>
<path d="M28.1226 28.2719C28.9358 28.2719 29.595 27.6105 29.595 26.7947C29.595 25.9788 28.9358 25.3174 28.1226 25.3174C27.3094 25.3174 26.6501 25.9788 26.6501 26.7947C26.6501 27.6105 27.3094 28.2719 28.1226 28.2719Z" fill="#A9C9EF"/>
<path d="M97.8879 72.3116C98.8268 72.3116 99.588 71.5479 99.588 70.6059C99.588 69.6638 98.8268 68.9001 97.8879 68.9001C96.9489 68.9001 96.1877 69.6638 96.1877 70.6059C96.1877 71.5479 96.9489 72.3116 97.8879 72.3116Z" fill="#A9C9EF"/>
<path d="M90.9457 84.5411C91.8847 84.5411 92.6458 83.7774 92.6458 82.8354C92.6458 81.8933 91.8847 81.1296 90.9457 81.1296C90.0068 81.1296 89.2456 81.8933 89.2456 82.8354C89.2456 83.7774 90.0068 84.5411 90.9457 84.5411Z" fill="#A9C9EF"/>
<path d="M99.5881 106.888C100.527 106.888 101.288 106.124 101.288 105.182C101.288 104.24 100.527 103.476 99.5881 103.476C98.6491 103.476 97.8879 104.24 97.8879 105.182C97.8879 106.124 98.6491 106.888 99.5881 106.888Z" fill="#A9C9EF"/>
<path d="M90.9457 127.083C91.8847 127.083 92.6458 126.319 92.6458 125.377C92.6458 124.435 91.8847 123.671 90.9457 123.671C90.0068 123.671 89.2456 124.435 89.2456 125.377C89.2456 126.319 90.0068 127.083 90.9457 127.083Z" fill="#C7EBFF"/>
<path d="M75.1288 109.964C76.0678 109.964 76.8289 109.201 76.8289 108.258C76.8289 107.316 76.0678 106.553 75.1288 106.553C74.1899 106.553 73.4287 107.316 73.4287 108.258C73.4287 109.201 74.1899 109.964 75.1288 109.964Z" fill="#D8F1FF"/>
<path d="M86.3464 118.762C87.0087 118.762 87.5456 118.223 87.5456 117.558C87.5456 116.894 87.0087 116.355 86.3464 116.355C85.6841 116.355 85.1472 116.894 85.1472 117.558C85.1472 118.223 85.6841 118.762 86.3464 118.762Z" fill="#D8F1FF"/>
<path d="M169.951 75.5861C170.89 75.5861 171.651 74.8225 171.651 73.8804C171.651 72.9384 170.89 72.1747 169.951 72.1747C169.012 72.1747 168.25 72.9384 168.25 73.8804C168.25 74.8225 169.012 75.5861 169.951 75.5861Z" fill="#A9C9EF"/>
<path d="M164.901 108.258C165.84 108.258 166.601 107.494 166.601 106.552C166.601 105.61 165.84 104.847 164.901 104.847C163.962 104.847 163.201 105.61 163.201 106.552C163.201 107.494 163.962 108.258 164.901 108.258Z" fill="#A9C9EF"/>
<g clip-path="url(#clip1_1169_7975)">
<path d="M143.443 77.7589L153.45 72.0076C153.624 71.904 153.771 71.7611 153.879 71.5903C153.987 71.4196 154.053 71.2259 154.072 71.025V68.4446L142.817 74.9142V77.4946C142.817 77.8415 143.099 77.9571 143.443 77.7589Z" fill="url(#paint51_linear_1169_7975)"/>
<path d="M153.45 59.1961L143.443 64.9473C143.269 65.0512 143.122 65.1942 143.013 65.3648C142.904 65.5354 142.837 65.7289 142.817 65.93V68.5104L154.072 62.0407V59.4603C154.072 59.1011 153.794 58.9979 153.45 59.1961Z" fill="url(#paint52_linear_1169_7975)"/>
<path d="M142.817 71.7146L154.072 65.245V68.4489L142.817 74.9144V71.7146Z" fill="url(#paint53_linear_1169_7975)"/>
<path d="M142.817 68.5107L154.072 62.041V65.2449L142.817 71.7145V68.5107Z" fill="url(#paint54_linear_1169_7975)"/>
<path opacity="0.59" d="M147.108 66.1202V73.139C147.112 73.176 147.112 73.2134 147.108 73.2505C147.071 73.4299 146.998 73.5999 146.892 73.7499C146.786 73.8998 146.651 74.0263 146.494 74.1216L142.817 76.252V67.9947L146.482 65.889C146.826 65.6909 147.108 65.8065 147.108 66.1491V66.1202Z" fill="#42A4F4"/>
<path opacity="0.59" d="M147.373 65.9797V72.4783C147.343 72.7643 147.247 73.0395 147.092 73.2823C146.938 73.5251 146.729 73.729 146.482 73.8779L142.817 75.9835V67.7262L146.482 65.6205C146.975 65.3233 147.373 65.4925 147.373 65.9797Z" fill="#42A4F4"/>
<path d="M147.108 66.1202V72.6311C147.088 72.8313 147.022 73.0242 146.914 73.1941C146.806 73.3641 146.659 73.5064 146.486 73.6096L142.817 75.7152V67.9781L146.482 65.8724C146.826 65.6743 147.108 65.7899 147.108 66.1325V66.1202Z" fill="#42A4F4" fill-opacity="0.55"/>
<path d="M146.838 66.2895V72.7839C146.819 72.9841 146.752 73.177 146.644 73.3469C146.536 73.5169 146.39 73.6592 146.216 73.7624L142.817 75.7153V67.9781L146.212 66.0253C146.556 65.8271 146.838 65.9427 146.838 66.2854V66.2895Z" fill="#3FA3F4"/>
<path d="M139.961 69.6213L146.212 66.0252C146.556 65.827 146.838 65.9467 146.838 66.2894V72.5155C146.818 72.7166 146.751 72.9103 146.642 73.0809C146.534 73.2516 146.386 73.3945 146.212 73.4981L139.961 77.0942C139.617 77.2924 139.335 77.1726 139.335 76.83V70.6039C139.355 70.4028 139.422 70.2091 139.53 70.0384C139.639 69.8678 139.786 69.7249 139.961 69.6213Z" fill="url(#paint55_linear_1169_7975)"/>
<path d="M141.901 73.2794C141.901 73.3702 141.901 73.4487 141.926 73.5188C141.926 73.4487 141.926 73.3578 141.959 73.2546C141.992 73.1514 141.992 73.0564 142.004 72.9821L142.663 69.7783L143.493 69.2911L144.172 71.6816C144.231 71.8343 144.277 71.9918 144.309 72.1522C144.323 71.9681 144.347 71.7849 144.38 71.6031L144.927 68.4901L145.698 68.0483L144.724 72.6353L143.837 73.139L143.186 70.8435C143.16 70.7567 143.139 70.6684 143.124 70.5792C143.1 70.4992 143.08 70.4179 143.066 70.3356C143.066 70.4058 143.045 70.5132 143.024 70.6535L142.97 70.9714L142.361 74.0019L141.441 74.5304L140.483 71.0334L141.271 70.5792L141.863 73.0564C141.877 73.1115 141.89 73.1858 141.901 73.2794Z" fill="#54AEF6"/>
</g>
<path d="M68.9778 45.2096V41.1449C68.9778 40.945 69.1323 40.87 69.3216 40.98L73.1587 43.2248C73.3447 43.342 73.501 43.5011 73.6152 43.6894C73.7294 43.8777 73.7983 44.0901 73.8165 44.3097V48.0394C73.8165 49.4643 72.7351 49.9893 71.4046 49.2094C70.7165 48.7795 70.1385 48.1937 69.717 47.4991C69.2956 46.8044 69.0424 46.0203 68.9778 45.2096Z" fill="url(#paint56_linear_1169_7975)"/>
<path d="M72.6398 41.1173C73.1995 40.7384 73.1172 39.6343 72.456 38.6511C71.7948 37.6679 70.8052 37.178 70.2455 37.5568C69.6859 37.9357 69.7682 39.0398 70.4293 40.023C71.0905 41.0062 72.0802 41.4961 72.6398 41.1173Z" fill="url(#paint57_linear_1169_7975)"/>
<path d="M71.2051 49.2844L71.1055 49.2194C71.1367 49.2439 71.1701 49.2656 71.2051 49.2844Z" fill="#23C3A7"/>
<path d="M68.142 38.5236C68.9561 37.9767 68.8405 36.3709 67.8836 34.9368C66.9267 33.5027 65.491 32.7835 64.6768 33.3303C63.8626 33.8771 63.9783 35.483 64.9352 36.9171C65.8921 38.3512 67.3278 39.0704 68.142 38.5236Z" fill="url(#paint58_linear_1169_7975)"/>
<path d="M70.0143 41.3897L63.3766 37.505C63.0129 37.29 62.7139 37.43 62.7139 37.8199V42.0396C62.7438 44.4145 64.5527 47.3542 66.7503 48.6092C68.9478 49.8641 70.6471 48.9891 70.677 46.6993V42.4796C70.6594 42.2585 70.5903 42.0447 70.4751 41.8554C70.36 41.666 70.2021 41.5065 70.0143 41.3897Z" fill="url(#paint59_linear_1169_7975)"/>
<path opacity="0.59" d="M66.4112 39.2797V45.5792C66.4164 45.6174 66.4164 45.656 66.4112 45.6942C66.3614 46.0042 66.0823 46.0942 65.7634 45.9042L63.2718 44.4343C63.217 44.2993 63.1671 44.1693 63.1223 44.0393C63.074 43.9167 63.0325 43.7915 62.9977 43.6643C62.8395 43.137 62.7556 42.5901 62.7485 42.0395V37.8248C62.7485 37.4348 63.0425 37.2898 63.4063 37.4998L66.4112 39.2797Z" fill="#23C3A7"/>
<path opacity="0.2" d="M66.4115 37.5551V38.365C66.3134 38.3087 66.2186 38.2469 66.1274 38.18C65.266 37.5333 64.6267 36.6333 64.2986 35.6052L65.7437 36.4552C65.9328 36.5719 66.0915 36.7321 66.2067 36.9224C66.3219 37.1128 66.3904 37.3279 66.4065 37.5501L66.4115 37.5551Z" fill="#23C3A7"/>
<path opacity="0.59" d="M66.6954 39.4451V45.1347C66.6954 45.6946 66.2669 45.8946 65.7486 45.5996L63.0876 44.0397C63.0378 43.9098 62.9979 43.7898 62.963 43.6648C62.8048 43.1375 62.7209 42.5905 62.7139 42.0399V37.8202C62.7139 37.4302 63.0079 37.2902 63.3716 37.5002L66.6954 39.4451Z" fill="#23C3A7"/>
<path opacity="0.59" d="M66.6955 37.7197V38.5146C66.4951 38.423 66.3047 38.3107 66.1274 38.1797C65.2659 37.5329 64.6267 36.6329 64.2985 35.6049C64.2637 35.4849 64.2288 35.3649 64.2039 35.2499L65.7487 36.1498C66.0167 36.3203 66.2416 36.5508 66.4059 36.8231C66.5702 37.0955 66.6693 37.4024 66.6955 37.7197Z" fill="#23C3A7"/>
<path d="M66.4114 39.28V44.9696C66.4114 45.3645 66.1124 45.5095 65.7486 45.2946L62.963 43.6647C62.8048 43.1374 62.7209 42.5904 62.7139 42.0398V37.8201C62.7139 37.4301 63.0079 37.2851 63.3716 37.5001L66.4114 39.28Z" fill="#23C3A7"/>
<path opacity="0.82" d="M66.4115 37.5551V38.365C66.3134 38.3087 66.2186 38.2469 66.1274 38.18C65.266 37.5333 64.6267 36.6333 64.2986 35.6052L65.7437 36.4552C65.9328 36.5719 66.0915 36.7321 66.2067 36.9224C66.3219 37.1128 66.3904 37.3279 66.4065 37.5501L66.4115 37.5551Z" fill="#23C3A7"/>
<path opacity="0.1" d="M66.1274 37.3851V38.18C65.266 37.5333 64.6267 36.6333 64.2986 35.6052L65.4896 36.2902C65.6776 36.4081 65.8354 36.5686 65.9505 36.7587C66.0656 36.9488 66.1347 37.1634 66.1523 37.3851H66.1274Z" fill="#23C3A7"/>
<path opacity="0.1" d="M63.3767 37.5052L66.1274 39.1151V44.8047C66.1274 45.1947 65.8284 45.3397 65.4646 45.1297L62.973 43.6648C62.8148 43.1375 62.7309 42.5905 62.7239 42.0399V37.8202C62.7239 37.4302 63.0179 37.2902 63.3817 37.5002L63.3767 37.5052Z" fill="#23C3A7"/>
<path d="M58.8268 32.4051L65.4595 36.2898C65.649 36.4077 65.8083 36.5687 65.9243 36.7598C66.0403 36.9509 66.1098 37.1667 66.1272 37.3898V44.4992C66.1272 44.8892 65.8282 45.0342 65.4595 44.8192L58.8268 40.9345C58.6386 40.8169 58.4805 40.6565 58.3654 40.4663C58.2503 40.2761 58.1813 40.0614 58.1641 39.8396V32.7501C58.1641 32.3351 58.4581 32.1901 58.8268 32.4051Z" fill="url(#paint60_linear_1169_7975)"/>
<path d="M63.855 37.9451L62.5544 37.1851V41.1549L61.7272 40.6549V36.7002L60.4365 35.9452V35.1753L63.855 37.1751V37.9451Z" fill="#23C3A7"/>
<path d="M35.5005 100.717C37.2297 98.0421 37.2297 95.2173 35.5005 94.4424C33.7713 93.6674 30.9807 95.1873 29.2516 97.8621C27.5224 100.537 27.5274 103.362 29.2516 104.132C30.9757 104.902 33.7763 103.392 35.5005 100.717Z" fill="#FF8D4D"/>
<path d="M34.7232 100.357C36.0188 98.3569 36.0188 96.2471 34.7232 95.6571C33.4275 95.0672 31.3296 96.2121 30.034 98.217C28.7383 100.222 28.7383 102.332 30.034 102.922C31.3296 103.512 33.4275 102.367 34.7232 100.357Z" fill="url(#paint61_linear_1169_7975)"/>
<path d="M39.9158 91.8722L34.524 94.802C34.7946 94.8233 35.057 94.9048 35.2923 95.0406C35.5276 95.1764 35.7299 95.363 35.8844 95.5869C36.218 96.1078 36.3704 96.7249 36.3179 97.3418C36.2619 98.1225 36.0554 98.8849 35.71 99.5866C35.3262 100.391 34.8221 101.131 34.215 101.781L31.4443 107.986C31.7609 107.852 32.0703 107.702 32.3712 107.536C33.8346 106.713 35.1557 105.658 36.283 104.411C37.4845 103.109 38.4916 101.639 39.2729 100.047C39.9772 98.625 40.4179 97.0867 40.5736 95.5069C40.7234 94.2566 40.4942 92.9899 39.9158 91.8722Z" fill="url(#paint62_linear_1169_7975)"/>
<path d="M32.3761 91.0425C30.9689 91.8366 29.6957 92.8491 28.6038 94.0423C27.4414 95.2843 26.4569 96.6827 25.6787 98.197L28.4494 101.197C28.5127 100.402 28.7275 99.626 29.0822 98.912C29.4664 98.1098 29.9705 97.3714 30.5772 96.7221C31.1503 96.1104 31.8247 95.603 32.5705 95.2222C33.1622 94.9007 33.8324 94.7534 34.504 94.7973L39.8958 91.8675C39.5865 91.3199 39.1482 90.8567 38.6191 90.5185C38.09 90.1803 37.4864 89.9774 36.861 89.9276C35.2887 89.8421 33.7268 90.2304 32.3761 91.0425Z" fill="url(#paint63_linear_1169_7975)"/>
<path d="M34.2049 101.791C33.6452 102.399 32.9863 102.906 32.2565 103.291C31.6725 103.626 31.0103 103.798 30.3379 103.791C30.0707 103.783 29.8082 103.718 29.5677 103.601C29.3272 103.484 29.1142 103.317 28.9426 103.111C28.5907 102.63 28.4147 102.042 28.4443 101.446V101.216L25.6687 98.1914C24.8798 99.6763 24.3729 101.295 24.1737 102.966C23.9954 104.277 24.2307 105.611 24.8465 106.781C25.127 107.264 25.5098 107.68 25.9679 107.998C26.4259 108.317 26.9481 108.531 27.4975 108.626C28.8399 108.814 30.2079 108.601 31.4293 108.011L34.1999 101.806L34.2049 101.791Z" fill="url(#paint64_linear_1169_7975)"/>
<path fill-rule="evenodd" clip-rule="evenodd" d="M40.1182 91.8225C40.1672 91.9148 40.1321 92.0293 40.0398 92.0783L34.3184 95.1163C34.2261 95.1653 34.1116 95.1302 34.0627 95.0379C34.0137 94.9457 34.0487 94.8312 34.141 94.7822L39.8624 91.7442C39.9547 91.6952 40.0692 91.7303 40.1182 91.8225Z" fill="#FF8D4D"/>
<path fill-rule="evenodd" clip-rule="evenodd" d="M25.543 97.9665C25.6198 97.8957 25.7394 97.9005 25.8103 97.9772L28.6474 101.051C28.7182 101.127 28.7134 101.247 28.6367 101.318C28.5599 101.389 28.4403 101.384 28.3694 101.307L25.5323 98.2338C25.4615 98.1571 25.4663 98.0374 25.543 97.9665Z" fill="#FAAD14"/>
<path fill-rule="evenodd" clip-rule="evenodd" d="M34.3283 101.324C34.4242 101.366 34.4684 101.477 34.427 101.573L31.5545 108.228C31.5131 108.324 31.4018 108.368 31.3059 108.327C31.21 108.286 31.1658 108.174 31.2072 108.078L34.0797 101.423C34.1211 101.327 34.2324 101.283 34.3283 101.324Z" fill="#FF8D4D"/>
</g>
<defs>
<linearGradient id="paint0_linear_1169_7975" x1="75.0264" y1="50.3929" x2="146.033" y2="39.6749" gradientUnits="userSpaceOnUse">
<stop stop-color="#7BBDFF"/>
<stop offset="1" stop-color="#7BBDFF" stop-opacity="0"/>
</linearGradient>
<linearGradient id="paint1_linear_1169_7975" x1="-61.8628" y1="111.163" x2="-41.4758" y2="190.791" gradientUnits="userSpaceOnUse">
<stop stop-color="#71B6FD"/>
<stop offset="1" stop-color="#0073FC"/>
</linearGradient>
<linearGradient id="paint2_linear_1169_7975" x1="-19.2977" y1="122.4" x2="-6.24967" y2="176.374" gradientUnits="userSpaceOnUse">
<stop stop-color="#71B6FD"/>
<stop offset="1" stop-color="#0073FC"/>
</linearGradient>
<linearGradient id="paint3_linear_1169_7975" x1="22.421" y1="136.257" x2="27.659" y2="163.086" gradientUnits="userSpaceOnUse">
<stop stop-color="#71B6FD"/>
<stop offset="1" stop-color="#0073FC"/>
</linearGradient>
<linearGradient id="paint4_linear_1169_7975" x1="37.2655" y1="145.855" x2="39.0835" y2="159.838" gradientUnits="userSpaceOnUse">
<stop stop-color="#71B6FD"/>
<stop offset="1" stop-color="#0073FC"/>
</linearGradient>
<linearGradient id="paint5_linear_1169_7975" x1="70.7156" y1="65.8162" x2="70.7212" y2="62.6397" gradientUnits="userSpaceOnUse">
<stop offset="0.14" stop-color="#A1D7FF" stop-opacity="0.37"/>
<stop offset="1" stop-color="#62AAFF"/>
</linearGradient>
<linearGradient id="paint6_linear_1169_7975" x1="70.8487" y1="68.9793" x2="70.8536" y2="66.1948" gradientUnits="userSpaceOnUse">
<stop offset="0.14" stop-color="#A1D7FF" stop-opacity="0.37"/>
<stop offset="1" stop-color="#62AAFF"/>
</linearGradient>
<linearGradient id="paint7_linear_1169_7975" x1="70.8487" y1="72.2236" x2="70.8536" y2="69.4391" gradientUnits="userSpaceOnUse">
<stop offset="0.14" stop-color="#A1D7FF" stop-opacity="0.37"/>
<stop offset="1" stop-color="#62AAFF"/>
</linearGradient>
<linearGradient id="paint8_linear_1169_7975" x1="70.936" y1="75.3485" x2="70.9404" y2="72.8208" gradientUnits="userSpaceOnUse">
<stop offset="0.14" stop-color="#A1D7FF" stop-opacity="0.37"/>
<stop offset="1" stop-color="#62AAFF"/>
</linearGradient>
<linearGradient id="paint9_linear_1169_7975" x1="70.9955" y1="78.5511" x2="70.9997" y2="76.1992" gradientUnits="userSpaceOnUse">
<stop offset="0.14" stop-color="#A1D7FF" stop-opacity="0.37"/>
<stop offset="1" stop-color="#62AAFF"/>
</linearGradient>
<linearGradient id="paint10_linear_1169_7975" x1="71.046" y1="81.5363" x2="71.0499" y2="79.333" gradientUnits="userSpaceOnUse">
<stop offset="0.14" stop-color="#A1D7FF" stop-opacity="0.37"/>
<stop offset="1" stop-color="#62AAFF"/>
</linearGradient>
<linearGradient id="paint11_linear_1169_7975" x1="71.1056" y1="84.7742" x2="71.1092" y2="82.7467" gradientUnits="userSpaceOnUse">
<stop offset="0.14" stop-color="#A1D7FF" stop-opacity="0.37"/>
<stop offset="1" stop-color="#62AAFF"/>
</linearGradient>
<linearGradient id="paint12_linear_1169_7975" x1="71.1747" y1="87.9312" x2="71.1779" y2="86.1064" gradientUnits="userSpaceOnUse">
<stop offset="0.14" stop-color="#A1D7FF" stop-opacity="0.37"/>
<stop offset="1" stop-color="#62AAFF"/>
</linearGradient>
<linearGradient id="paint13_linear_1169_7975" x1="71.2434" y1="91.113" x2="71.2462" y2="89.491" gradientUnits="userSpaceOnUse">
<stop offset="0.14" stop-color="#A1D7FF" stop-opacity="0.37"/>
<stop offset="1" stop-color="#62AAFF"/>
</linearGradient>
<linearGradient id="paint14_linear_1169_7975" x1="25.9964" y1="124.882" x2="26.0019" y2="121.706" gradientUnits="userSpaceOnUse">
<stop offset="0.14" stop-color="#A1D7FF" stop-opacity="0.37"/>
<stop offset="1" stop-color="#62AAFF"/>
</linearGradient>
<linearGradient id="paint15_linear_1169_7975" x1="26.1295" y1="128.041" x2="26.1344" y2="125.256" gradientUnits="userSpaceOnUse">
<stop offset="0.14" stop-color="#A1D7FF" stop-opacity="0.37"/>
<stop offset="1" stop-color="#62AAFF"/>
</linearGradient>
<linearGradient id="paint16_linear_1169_7975" x1="26.1295" y1="131.284" x2="26.1344" y2="128.5" gradientUnits="userSpaceOnUse">
<stop offset="0.14" stop-color="#A1D7FF" stop-opacity="0.37"/>
<stop offset="1" stop-color="#62AAFF"/>
</linearGradient>
<linearGradient id="paint17_linear_1169_7975" x1="26.2167" y1="134.409" x2="26.2212" y2="131.882" gradientUnits="userSpaceOnUse">
<stop offset="0.14" stop-color="#A1D7FF" stop-opacity="0.37"/>
<stop offset="1" stop-color="#62AAFF"/>
</linearGradient>
<linearGradient id="paint18_linear_1169_7975" x1="26.2763" y1="137.612" x2="26.2804" y2="135.26" gradientUnits="userSpaceOnUse">
<stop offset="0.14" stop-color="#A1D7FF" stop-opacity="0.37"/>
<stop offset="1" stop-color="#62AAFF"/>
</linearGradient>
<linearGradient id="paint19_linear_1169_7975" x1="26.3268" y1="140.602" x2="26.3307" y2="138.399" gradientUnits="userSpaceOnUse">
<stop offset="0.14" stop-color="#A1D7FF" stop-opacity="0.37"/>
<stop offset="1" stop-color="#62AAFF"/>
</linearGradient>
<linearGradient id="paint20_linear_1169_7975" x1="26.3866" y1="143.84" x2="26.3902" y2="141.812" gradientUnits="userSpaceOnUse">
<stop offset="0.14" stop-color="#A1D7FF" stop-opacity="0.37"/>
<stop offset="1" stop-color="#62AAFF"/>
</linearGradient>
<linearGradient id="paint21_linear_1169_7975" x1="26.4555" y1="146.997" x2="26.4587" y2="145.172" gradientUnits="userSpaceOnUse">
<stop offset="0.14" stop-color="#A1D7FF" stop-opacity="0.37"/>
<stop offset="1" stop-color="#62AAFF"/>
</linearGradient>
<linearGradient id="paint22_linear_1169_7975" x1="26.5241" y1="150.174" x2="26.527" y2="148.552" gradientUnits="userSpaceOnUse">
<stop offset="0.14" stop-color="#A1D7FF" stop-opacity="0.37"/>
<stop offset="1" stop-color="#62AAFF"/>
</linearGradient>
<linearGradient id="paint23_linear_1169_7975" x1="141.321" y1="93.8189" x2="141.326" y2="90.6424" gradientUnits="userSpaceOnUse">
<stop offset="0.14" stop-color="#A1D7FF" stop-opacity="0.37"/>
<stop offset="1" stop-color="#62AAFF"/>
</linearGradient>
<linearGradient id="paint24_linear_1169_7975" x1="141.454" y1="96.9824" x2="141.459" y2="94.1979" gradientUnits="userSpaceOnUse">
<stop offset="0.14" stop-color="#A1D7FF" stop-opacity="0.37"/>
<stop offset="1" stop-color="#62AAFF"/>
</linearGradient>
<linearGradient id="paint25_linear_1169_7975" x1="141.454" y1="100.221" x2="141.459" y2="97.4366" gradientUnits="userSpaceOnUse">
<stop offset="0.14" stop-color="#A1D7FF" stop-opacity="0.37"/>
<stop offset="1" stop-color="#62AAFF"/>
</linearGradient>
<linearGradient id="paint26_linear_1169_7975" x1="141.541" y1="103.346" x2="141.546" y2="100.818" gradientUnits="userSpaceOnUse">
<stop offset="0.14" stop-color="#A1D7FF" stop-opacity="0.37"/>
<stop offset="1" stop-color="#62AAFF"/>
</linearGradient>
<linearGradient id="paint27_linear_1169_7975" x1="141.601" y1="106.549" x2="141.605" y2="104.197" gradientUnits="userSpaceOnUse">
<stop offset="0.14" stop-color="#A1D7FF" stop-opacity="0.37"/>
<stop offset="1" stop-color="#62AAFF"/>
</linearGradient>
<linearGradient id="paint28_linear_1169_7975" x1="141.652" y1="109.539" x2="141.655" y2="107.336" gradientUnits="userSpaceOnUse">
<stop offset="0.14" stop-color="#A1D7FF" stop-opacity="0.37"/>
<stop offset="1" stop-color="#62AAFF"/>
</linearGradient>
<linearGradient id="paint29_linear_1169_7975" x1="141.711" y1="112.777" x2="141.714" y2="110.75" gradientUnits="userSpaceOnUse">
<stop offset="0.14" stop-color="#A1D7FF" stop-opacity="0.37"/>
<stop offset="1" stop-color="#62AAFF"/>
</linearGradient>
<linearGradient id="paint30_linear_1169_7975" x1="141.78" y1="115.934" x2="141.783" y2="114.109" gradientUnits="userSpaceOnUse">
<stop offset="0.14" stop-color="#A1D7FF" stop-opacity="0.37"/>
<stop offset="1" stop-color="#62AAFF"/>
</linearGradient>
<linearGradient id="paint31_linear_1169_7975" x1="141.849" y1="119.11" x2="141.852" y2="117.488" gradientUnits="userSpaceOnUse">
<stop offset="0.14" stop-color="#A1D7FF" stop-opacity="0.37"/>
<stop offset="1" stop-color="#62AAFF"/>
</linearGradient>
<linearGradient id="paint32_linear_1169_7975" x1="141.908" y1="122.044" x2="141.911" y2="120.598" gradientUnits="userSpaceOnUse">
<stop offset="0.14" stop-color="#A1D7FF" stop-opacity="0.37"/>
<stop offset="1" stop-color="#62AAFF"/>
</linearGradient>
<linearGradient id="paint33_linear_1169_7975" x1="142.009" y1="124.912" x2="142.011" y2="123.763" gradientUnits="userSpaceOnUse">
<stop offset="0.14" stop-color="#A1D7FF" stop-opacity="0.37"/>
<stop offset="1" stop-color="#62AAFF"/>
</linearGradient>
<linearGradient id="paint34_linear_1169_7975" x1="142.065" y1="127.976" x2="142.066" y2="126.989" gradientUnits="userSpaceOnUse">
<stop offset="0.14" stop-color="#A1D7FF" stop-opacity="0.37"/>
<stop offset="1" stop-color="#62AAFF"/>
</linearGradient>
<linearGradient id="paint35_linear_1169_7975" x1="57.2599" y1="25.2983" x2="81.7607" y2="43.1568" gradientUnits="userSpaceOnUse">
<stop stop-color="#89E1C0"/>
<stop offset="1" stop-color="#26BD87"/>
</linearGradient>
<linearGradient id="paint36_linear_1169_7975" x1="51.4714" y1="28.3765" x2="75.9666" y2="46.2368" gradientUnits="userSpaceOnUse">
<stop stop-color="#77DBB6"/>
<stop offset="1" stop-color="#26BD87"/>
</linearGradient>
<linearGradient id="paint37_linear_1169_7975" x1="28.8048" y1="12.8798" x2="69.6866" y2="51.2741" gradientUnits="userSpaceOnUse">
<stop stop-color="#81EAC1"/>
<stop offset="1" stop-color="#25BC86"/>
</linearGradient>
<linearGradient id="paint38_linear_1169_7975" x1="1.69232" y1="83.4159" x2="26.2039" y2="101.272" gradientUnits="userSpaceOnUse">
<stop stop-color="#FFCC43"/>
<stop offset="1" stop-color="#FFAC3A"/>
</linearGradient>
<linearGradient id="paint39_linear_1169_7975" x1="5.92766" y1="87.2766" x2="30.4319" y2="105.134" gradientUnits="userSpaceOnUse">
<stop stop-color="#FFCC43"/>
<stop offset="1" stop-color="#FFAC3A"/>
</linearGradient>
<linearGradient id="paint40_linear_1169_7975" x1="12.7277" y1="84.5567" x2="35.6407" y2="107.739" gradientUnits="userSpaceOnUse">
<stop stop-color="#F9CA53"/>
<stop offset="1" stop-color="#FCA32B"/>
<stop offset="1" stop-color="#CB7A0B"/>
</linearGradient>
<linearGradient id="paint41_linear_1169_7975" x1="117.192" y1="56.2063" x2="138.516" y2="75.2711" gradientUnits="userSpaceOnUse">
<stop stop-color="#71B6FD"/>
<stop offset="1" stop-color="#0073FC"/>
</linearGradient>
<linearGradient id="paint42_linear_1169_7975" x1="121.663" y1="60.1413" x2="142.987" y2="79.2103" gradientUnits="userSpaceOnUse">
<stop stop-color="#81D6FF"/>
<stop offset="1" stop-color="#56A4FF"/>
</linearGradient>
<linearGradient id="paint43_linear_1169_7975" x1="117.229" y1="52.4026" x2="144.027" y2="83.9737" gradientUnits="userSpaceOnUse">
<stop stop-color="#5BDEFF"/>
<stop offset="1" stop-color="#469BFF"/>
</linearGradient>
<linearGradient id="paint44_linear_1169_7975" x1="64.8218" y1="97.8265" x2="74.1072" y2="106.013" gradientUnits="userSpaceOnUse">
<stop stop-color="#A1D7FF"/>
<stop offset="0.6" stop-color="#2695F0"/>
</linearGradient>
<linearGradient id="paint45_linear_1169_7975" x1="67.9789" y1="98.4581" x2="72.8886" y2="102.787" gradientUnits="userSpaceOnUse">
<stop stop-color="#A1D7FF"/>
<stop offset="0.6" stop-color="#2695F0"/>
</linearGradient>
<linearGradient id="paint46_linear_1169_7975" x1="138.858" y1="136.014" x2="143.767" y2="140.342" gradientUnits="userSpaceOnUse">
<stop stop-color="#A1D7FF"/>
<stop offset="0.6" stop-color="#2695F0"/>
</linearGradient>
<linearGradient id="paint47_linear_1169_7975" x1="135.7" y1="135.382" x2="144.986" y2="143.568" gradientUnits="userSpaceOnUse">
<stop stop-color="#A1D7FF"/>
<stop offset="0.6" stop-color="#2695F0"/>
</linearGradient>
<linearGradient id="paint48_linear_1169_7975" x1="22.931" y1="157.046" x2="27.8407" y2="161.375" gradientUnits="userSpaceOnUse">
<stop stop-color="#A1D7FF"/>
<stop offset="0.6" stop-color="#2695F0"/>
</linearGradient>
<linearGradient id="paint49_linear_1169_7975" x1="19.774" y1="156.415" x2="29.0594" y2="164.601" gradientUnits="userSpaceOnUse">
<stop stop-color="#A1D7FF"/>
<stop offset="0.6" stop-color="#2695F0"/>
</linearGradient>
<linearGradient id="paint50_linear_1169_7975" x1="94.7494" y1="138.683" x2="94.7494" y2="57.2551" gradientUnits="userSpaceOnUse">
<stop stop-color="#64BDFC"/>
<stop offset="0.88" stop-color="#EAFEFF" stop-opacity="0"/>
</linearGradient>
<linearGradient id="paint51_linear_1169_7975" x1="152.784" y1="70.383" x2="154.438" y2="74.7705" gradientUnits="userSpaceOnUse">
<stop stop-color="#FBFEFF"/>
<stop offset="0.907444" stop-color="#80C3F8"/>
</linearGradient>
<linearGradient id="paint52_linear_1169_7975" x1="152.784" y1="61.0357" x2="154.439" y2="65.4241" gradientUnits="userSpaceOnUse">
<stop stop-color="#FBFEFF"/>
<stop offset="0.907444" stop-color="#80C3F8"/>
</linearGradient>
<linearGradient id="paint53_linear_1169_7975" x1="152.784" y1="67.2366" x2="154.519" y2="71.7136" gradientUnits="userSpaceOnUse">
<stop stop-color="#FBFEFF"/>
<stop offset="0.907444" stop-color="#80C3F8"/>
</linearGradient>
<linearGradient id="paint54_linear_1169_7975" x1="152.784" y1="64.0335" x2="154.52" y2="68.5119" gradientUnits="userSpaceOnUse">
<stop stop-color="#FBFEFF"/>
<stop offset="0.907444" stop-color="#80C3F8"/>
</linearGradient>
<linearGradient id="paint55_linear_1169_7975" x1="142.569" y1="72.0041" x2="134.453" y2="74.9486" gradientUnits="userSpaceOnUse">
<stop stop-color="#FBFEFF"/>
<stop offset="0.907444" stop-color="#80C3F8"/>
</linearGradient>
<linearGradient id="paint56_linear_1169_7975" x1="72.3233" y1="42.7203" x2="68.7855" y2="42.6994" gradientUnits="userSpaceOnUse">
<stop stop-color="#FBFEFF"/>
<stop offset="0.907444" stop-color="#A9F5D6"/>
</linearGradient>
<linearGradient id="paint57_linear_1169_7975" x1="71.9046" y1="38.1787" x2="69.0191" y2="37.5762" gradientUnits="userSpaceOnUse">
<stop stop-color="#FBFEFF"/>
<stop offset="0.907444" stop-color="#77E8BA"/>
</linearGradient>
<linearGradient id="paint58_linear_1169_7975" x1="67.0843" y1="34.2461" x2="62.8932" y2="33.3608" gradientUnits="userSpaceOnUse">
<stop stop-color="#FBFEFF"/>
<stop offset="0.907444" stop-color="#77E8BA"/>
</linearGradient>
<linearGradient id="paint59_linear_1169_7975" x1="68.1784" y1="39.5381" x2="62.7139" y2="38.9729" gradientUnits="userSpaceOnUse">
<stop stop-color="#FBFEFF"/>
<stop offset="0.907444" stop-color="#A9F5D6"/>
</linearGradient>
<linearGradient id="paint60_linear_1169_7975" x1="63.6148" y1="32.3063" x2="53.7341" y2="30.8095" gradientUnits="userSpaceOnUse">
<stop stop-color="#FBFEFF"/>
<stop offset="0.907444" stop-color="#A9F5D6"/>
</linearGradient>
<linearGradient id="paint61_linear_1169_7975" x1="32.3786" y1="95.5021" x2="21.235" y2="113.038" gradientUnits="userSpaceOnUse">
<stop stop-color="#FBFEFF"/>
<stop offset="0.907444" stop-color="#FFE58F"/>
</linearGradient>
<linearGradient id="paint62_linear_1169_7975" x1="34.9776" y1="101.902" x2="31.2108" y2="91.3427" gradientUnits="userSpaceOnUse">
<stop stop-color="#FBFEFF"/>
<stop offset="0.907444" stop-color="#FFE58F"/>
</linearGradient>
<linearGradient id="paint63_linear_1169_7975" x1="32.7872" y1="89.916" x2="21.7227" y2="99.1207" gradientUnits="userSpaceOnUse">
<stop stop-color="#FBFEFF"/>
<stop offset="0.907444" stop-color="#FFE58F"/>
</linearGradient>
<linearGradient id="paint64_linear_1169_7975" x1="29.1603" y1="98.1914" x2="37.2366" y2="104.498" gradientUnits="userSpaceOnUse">
<stop stop-color="#FBFEFF"/>
<stop offset="0.907444" stop-color="#FFE58F"/>
</linearGradient>
<clipPath id="clip0_1169_7975">
<rect width="176.848" height="176.848" fill="white" transform="translate(0 0.1521)"/>
</clipPath>
<clipPath id="clip1_1169_7975">
<rect width="14.7373" height="18.7566" fill="white" transform="translate(139.335 59.1014)"/>
</clipPath>
</defs>
</svg>
